# xmcd
#
# Track frame offsets: 
#        150
#        16738
#        29844
#        49334
#        64155
#        84381
#        101847
#        118778
#        134636
#        154364
#        171770
#        186750
#
# Disc length: 2719 seconds
#
# Revision: 2
# Processed by: cddbd v1.5.2PL0 Copyright (c) Steve Scherf et al.
# Submitted via: ExactAudioCopy v1.0b3
#
DISCID=ab0a9d0c
DTITLE=Dave Koz - Memories of a Winter's Night
DYEAR=2007
DGENRE=Jazz
TTITLE0=Deck the Halls
TTITLE1=Santa Claus is Coming to Town
TTITLE2=Have Yourself a Merry Little Christmas
TTITLE3=White Christmas
TTITLE4=Winter Wonderland
TTITLE5=Hark! The Herald Angels Sing
TTITLE6=Please Come Home For Christmas
TTITLE7=Memories of a Winter's Night (A Song for Hanukkah)
TTITLE8=Little Drummer Boy
TTITLE9=Silver Bells
TTITLE10=Boogie Woogie Santa Claus
TTITLE11=O Tannenbaum
EXTD=YEAR: 2007
EXTT0=
EXTT1=
EXTT2=
EXTT3=
EXTT4=
EXTT5=
EXTT6=
EXTT7=
EXTT8=
EXTT9=
EXTT10=
EXTT11=
PLAYORDER=
